<svg width="411" height="176" viewBox="0 0 411 176" fill="none" xmlns="http://www.w3.org/2000/svg">
<g clip-path="url(#clip0)">
<path d="M411.095 0H0V176H411.095V0Z" fill="#EE0000"/>
<path fill-rule="evenodd" clip-rule="evenodd" d="M175.657 140.664C85.7299 136.81 17 115.613 17 88.635C17 59.0876 101.146 35 204.883 35C308.62 35 394.372 57.1606 394.372 84.4599C394.372 92.1679 386.343 98.9124 374.139 105.336C382.489 100.197 386.343 93.7737 386.343 87.6715C386.343 62.6204 308.299 43.0292 213.876 43.0292C119.453 43.0292 43.0146 65.1898 43.0146 92.1679C43.3358 115.613 99.8613 135.526 175.657 140.664Z" fill="#FFC829"/>
<path d="M98.5766 104.372C98.2555 104.372 97.6131 104.372 96.6496 104.051C95.6861 103.73 95.365 102.445 95.0438 101.16L92.7956 81.8904C92.7956 81.5692 92.7956 80.6057 92.1533 80.6057C91.8321 80.6057 91.511 80.9269 91.511 81.248L82.8394 100.518L73.5255 81.5692C73.5255 81.248 73.2044 80.9269 72.8832 80.9269C72.8832 80.9269 72.2409 80.9269 72.2409 81.8904L69.9927 102.124C69.9927 103.409 69.6715 104.051 69.0292 104.372C68.708 104.372 68.3869 104.372 68.0657 104.372C67.7445 104.372 67.4234 104.693 67.4234 104.693C67.4234 105.014 67.4234 105.336 68.3869 105.336C69.0292 105.336 69.6715 105.336 70.3139 105.336C70.635 105.336 70.9562 105.336 70.9562 105.336C70.9562 105.336 71.2774 105.336 71.5985 105.336C72.2409 105.336 73.2044 105.336 73.8467 105.336C74.1679 105.336 74.8102 105.336 74.8102 104.693C74.8102 104.372 74.489 104.372 74.1679 104.372C73.8467 104.372 73.5255 104.372 73.2044 104.372C72.8832 104.372 72.562 104.051 72.562 103.73C72.562 103.087 72.562 102.766 72.562 102.124L73.8467 88.6349C74.8102 90.8831 77.3796 96.0218 77.7007 96.6641V96.9853C79.9489 101.482 80.9124 103.409 81.2336 104.051C81.8759 105.336 81.8759 105.657 82.5182 105.657C82.8394 105.657 83.1606 105.336 83.4818 104.372L90.8686 88.6349L92.1533 103.73C92.1533 104.051 92.1533 104.372 92.1533 104.693C91.8321 104.693 91.8321 105.014 91.8321 105.336C91.8321 105.978 92.4745 105.978 93.1168 105.978C94.4015 105.978 97.6131 106.299 98.2555 106.299C99.219 106.299 99.219 105.978 99.219 105.657C99.219 104.693 99.219 104.372 98.5766 104.372Z" fill="white"/>
<path d="M115.277 100.518C114.956 100.518 114.635 100.839 114.635 101.16C114.314 102.445 113.993 102.766 113.35 103.087C112.708 103.409 111.423 103.409 110.46 103.409C107.569 103.409 107.248 103.087 107.248 101.16C107.248 100.839 107.248 98.591 107.248 97.3063V93.4523C107.891 93.4523 110.781 93.4523 111.423 93.4523C112.708 93.4523 112.708 94.0946 112.708 94.4158C112.708 94.737 112.708 95.0581 112.708 95.3793C112.708 95.7005 113.029 96.0216 113.35 96.0216C113.993 96.0216 113.993 95.3793 113.993 95.0581C113.993 94.737 113.993 93.7735 113.993 93.1311C113.993 92.4888 113.993 92.1676 114.314 91.8465C114.314 91.5253 114.314 91.5253 114.314 91.5253C114.314 91.2041 113.993 90.883 113.993 90.883C113.672 90.883 113.672 91.2041 113.35 91.5253C113.029 91.8465 112.708 91.8465 112.066 91.8465C111.423 91.8465 109.175 91.8465 107.248 91.8465V83.1749C107.891 83.1749 110.781 83.1749 111.423 83.1749C113.029 83.4961 113.35 83.8173 113.35 84.1384C113.35 84.4596 113.35 84.7808 113.35 85.1019C113.35 85.7443 113.672 85.7443 113.993 85.7443C114.314 85.7443 114.314 85.7443 114.635 85.1019C114.635 84.7808 114.635 84.1384 114.635 83.8173C114.635 83.4961 114.635 83.1749 114.635 83.1749C114.635 82.5326 114.635 82.2114 114.956 82.2114C114.956 81.8903 114.956 81.8903 114.956 81.8903C114.956 81.2479 114.635 81.2479 114.635 81.2479C114.314 81.2479 114.314 81.2479 114.314 81.2479C113.993 81.2479 113.672 81.2479 113.029 81.2479C112.387 81.2479 106.285 81.2479 105.964 81.2479H104.679C104.036 81.2479 103.073 81.2479 102.431 81.2479C101.788 81.2479 101.467 81.5691 101.467 81.8903C101.467 82.2114 101.788 82.5326 102.109 82.5326C102.431 82.5326 102.752 82.5326 103.073 82.5326C104.036 82.8538 104.036 82.8538 104.036 84.1384C104.036 85.1019 104.036 86.0654 104.036 90.883V96.0216C104.036 98.9122 104.036 101.481 104.036 102.766C104.036 103.73 103.715 104.051 103.394 104.051C103.073 104.051 102.752 104.051 102.431 104.051C102.109 104.051 101.788 104.372 101.788 104.693C101.788 105.014 102.109 105.336 102.752 105.336C103.073 105.336 103.394 105.336 103.394 105.336C103.715 105.336 104.037 105.336 104.358 105.336C105 105.336 105.642 105.336 105.642 105.336C106.285 105.336 106.927 105.336 108.212 105.336H108.854C109.818 105.336 111.423 105.336 113.35 105.336C114.635 105.336 114.956 105.336 115.277 104.372C115.277 103.73 115.599 101.482 115.599 101.16C115.92 101.16 115.92 100.518 115.277 100.518Z" fill="white"/>
<path d="M143.219 104.372C142.898 104.372 142.577 104.372 141.934 104.372C140.971 104.372 140.007 103.73 138.401 102.124C136.796 100.518 134.869 97.9486 132.942 95.3793L132.299 94.4158C134.869 92.1676 135.832 89.5983 135.832 87.0289C135.832 84.7808 134.547 83.1749 133.584 82.5326C131.978 81.2479 129.73 81.2479 127.803 81.2479C127.161 81.2479 126.197 81.2479 125.234 81.2479C124.591 81.2479 124.27 81.2479 124.27 81.2479H123.949C123.307 81.2479 122.022 81.2479 120.737 81.2479C120.095 81.2479 119.774 81.5691 119.774 81.8903C119.774 82.2114 120.095 82.5326 120.416 82.5326C120.737 82.5326 121.058 82.5326 121.38 82.5326C122.343 82.8538 122.343 82.8538 122.343 84.1384C122.343 85.1019 122.343 86.0654 122.343 90.883V96.0216C122.343 98.9122 122.343 101.481 122.343 102.766C122.343 103.73 122.022 104.051 121.701 104.372C121.38 104.372 121.058 104.372 120.737 104.372C120.416 104.372 120.095 104.693 120.095 105.014C120.095 105.336 120.416 105.657 121.058 105.657C121.701 105.657 123.307 105.657 123.949 105.657H124.27C124.912 105.657 126.518 105.657 127.803 105.657C128.445 105.657 128.766 105.336 128.766 105.014C128.766 104.693 128.445 104.372 128.124 104.372C127.803 104.372 127.161 104.372 126.839 104.372C126.197 104.372 125.876 104.051 125.876 103.087C125.876 101.803 125.876 99.2333 125.876 96.3428V95.7005H129.73C130.051 96.0216 130.372 96.664 131.015 97.3063C131.657 98.2698 132.62 99.2333 133.263 100.197L133.584 100.839C135.19 102.766 136.153 104.372 137.438 105.014C138.401 105.336 139.044 105.657 140.971 105.657H143.219C143.54 105.657 144.182 105.657 144.182 105.014C143.861 104.693 143.54 104.372 143.219 104.372ZM132.62 88.956C132.62 90.883 131.978 92.81 131.015 93.4523C130.372 93.7735 129.409 94.0946 128.766 94.0946C127.161 94.0946 125.876 93.7735 125.555 93.7735V83.1749C125.876 83.1749 126.518 82.8538 127.482 82.8538C130.693 82.8538 132.62 85.1019 132.62 88.956Z" fill="white"/>
<path d="M163.453 99.2333C162.81 99.2333 162.81 99.5545 162.81 99.8757C162.81 100.518 162.489 101.803 161.847 102.445C160.562 103.73 158.635 104.051 156.708 104.051C149.964 104.051 145.788 98.2698 145.788 93.1311C145.788 90.5618 146.11 87.6713 148.358 85.1019C149.964 83.4961 152.212 82.8538 155.423 82.8538C158.314 82.8538 160.562 83.8173 161.526 84.4596C162.168 85.1019 162.81 86.3866 162.81 87.3501C162.81 87.6713 162.81 88.3136 163.453 88.3136C164.095 88.3136 164.095 87.6713 164.095 87.3501C164.095 87.0289 164.095 86.7078 164.095 86.3866C164.095 85.7443 164.095 84.7808 164.095 84.1384C164.095 83.4961 164.095 83.1749 164.095 82.8538C164.095 82.5326 164.095 82.5326 164.095 82.5326C164.095 82.2114 163.774 81.8903 163.453 81.8903C162.489 81.8903 161.526 81.5691 160.562 81.5691C158.635 81.2479 156.708 81.2479 156.066 81.2479C151.891 81.2479 148.679 82.2114 146.431 84.7808C143.861 87.3501 142.898 90.883 142.898 93.4523C142.898 97.3063 144.183 100.518 146.752 102.766C149.321 105.014 152.854 106.299 157.35 106.299C159.277 106.299 161.847 105.978 163.131 105.657C163.774 105.336 163.774 105.336 164.095 104.693C164.416 103.73 164.737 100.839 164.737 100.518C164.095 99.2333 163.453 99.2333 163.453 99.2333Z" fill="white"/>
<path d="M191.715 104.372C191.394 104.372 190.752 104.372 190.431 104.372C189.788 104.372 189.467 104.051 189.467 103.087C189.467 101.803 189.467 99.2333 189.467 96.3428V90.883C189.467 86.0654 189.467 85.1019 189.467 84.1384C189.467 82.8538 189.788 82.8538 190.431 82.5326C190.752 82.5326 191.073 82.5326 191.073 82.5326C191.394 82.5326 191.715 82.2114 191.715 81.8903C191.715 81.5691 191.394 81.2479 190.752 81.2479C190.109 81.2479 188.825 81.2479 188.182 81.2479C187.861 81.2479 187.861 81.2479 187.54 81.2479H187.219C186.577 81.2479 185.292 81.2479 184.007 81.2479C183.365 81.2479 183.044 81.5691 183.044 81.8903C183.044 82.2114 183.365 82.5326 183.686 82.5326C184.007 82.5326 184.328 82.5326 184.65 82.5326C185.613 82.8538 185.613 82.8538 185.613 84.1384C185.613 85.1019 185.613 86.0654 185.613 90.883V91.5253H172.766V90.883C172.766 86.0654 172.766 85.1019 172.766 84.1384C172.766 82.8538 173.088 82.8538 173.73 82.5326C174.051 82.5326 174.372 82.5326 174.372 82.5326C174.693 82.5326 175.015 82.2114 175.015 81.8903C175.015 81.5691 174.693 81.2479 174.051 81.2479C173.409 81.2479 172.124 81.2479 171.482 81.2479C171.161 81.2479 171.161 81.2479 170.839 81.2479H170.518C169.876 81.2479 168.591 81.2479 167.307 81.2479C166.664 81.2479 166.343 81.5691 166.343 81.8903C166.343 82.2114 166.664 82.5326 166.985 82.5326C167.307 82.5326 167.628 82.5326 167.949 82.5326C168.912 82.8538 168.912 82.8538 168.912 84.1384C168.912 85.1019 168.912 86.0654 168.912 90.883V96.0216C168.912 98.9122 168.912 101.481 168.912 102.766C168.912 103.73 168.591 104.051 168.27 104.051C167.949 104.051 167.628 104.051 167.307 104.051C166.985 104.051 166.664 104.372 166.664 104.693C166.664 105.014 166.985 105.336 167.628 105.336C168.27 105.336 169.555 105.336 170.197 105.336C170.518 105.336 170.518 105.336 170.839 105.336H171.161C171.803 105.336 173.409 105.336 174.693 105.336C175.336 105.336 175.657 105.014 175.657 104.693C175.657 104.372 175.336 104.051 175.015 104.051C174.693 104.051 174.051 104.051 173.73 104.051C173.088 104.051 172.766 103.73 172.766 102.766C172.766 101.481 172.766 98.9122 172.766 96.0216V92.81H185.613V96.0216C185.613 98.9122 185.613 101.481 185.613 102.766C185.613 103.73 185.292 104.051 184.971 104.051C184.65 104.051 184.328 104.051 184.007 104.051C183.686 104.051 183.365 104.372 183.365 104.693C183.365 105.014 183.686 105.336 184.328 105.336C184.971 105.336 186.255 105.336 186.898 105.336C187.219 105.336 187.219 105.336 187.54 105.336C187.54 105.336 187.54 105.336 187.861 105.336C188.504 105.336 190.109 105.336 191.394 105.336C192.037 105.336 192.358 105.014 192.358 104.693C192.358 104.693 192.037 104.372 191.715 104.372Z" fill="white"/>
<path d="M217.73 104.372C217.409 104.372 217.088 104.372 216.445 104.051C216.124 104.051 215.161 103.73 213.876 100.839C212.591 97.3063 209.701 89.9195 207.774 85.4231C207.131 83.8173 206.489 82.5326 206.489 82.2114C206.168 81.2479 205.847 80.9268 205.526 80.9268C205.204 80.9268 204.883 81.2479 204.562 82.2114L197.496 101.482C196.854 103.087 196.212 104.051 195.248 104.051C194.927 104.051 194.606 104.051 194.285 104.051C193.964 104.051 193.642 104.372 193.642 104.693C193.642 105.336 194.285 105.336 194.606 105.336C195.569 105.336 196.533 105.336 197.496 105.336C197.818 105.336 198.139 105.336 198.139 105.336C198.139 105.336 198.46 105.336 198.781 105.336C199.423 105.336 200.066 105.336 200.387 105.336C201.029 105.336 201.029 105.014 201.029 104.693C201.029 104.693 201.029 104.051 200.387 104.051H200.066C199.745 104.051 199.102 104.051 199.102 103.409C199.102 102.766 199.102 102.124 199.423 101.482L201.35 96.0217H208.095L210.985 103.73C210.985 104.051 210.985 104.051 210.985 104.051C210.664 104.051 210.664 104.372 210.664 104.693C210.664 105.014 211.307 105.336 211.628 105.336C212.912 105.336 214.839 105.336 216.445 105.336C217.088 105.336 217.409 105.014 217.409 104.693C218.372 104.693 218.372 104.372 217.73 104.372ZM208.095 94.4158H202.635L205.204 86.3866L208.095 94.4158Z" fill="white"/>
<path d="M245.35 81.2479C244.387 81.2479 243.745 81.2479 243.102 81.2479C242.781 81.2479 242.781 81.2479 242.46 81.2479C242.46 81.2479 242.139 81.2479 241.818 81.2479C241.175 81.2479 240.212 81.2479 239.248 81.2479C238.927 81.2479 238.285 81.2479 238.285 81.8903C238.285 82.2114 238.606 82.5326 238.927 82.5326C239.248 82.5326 239.891 82.5326 240.212 82.5326C240.854 82.8538 241.175 83.1749 241.175 85.1019L241.496 100.197C240.854 99.5545 240.212 98.9122 239.248 97.9487C237.964 96.3428 236.036 94.4158 234.431 92.81C229.613 87.6713 225.117 82.5326 224.474 82.2114L224.153 81.8903C223.832 81.2479 223.511 80.9268 223.19 80.9268C222.547 80.9268 222.547 81.8903 222.547 82.8538V100.839C222.547 103.409 222.547 104.372 221.905 104.372C221.584 104.372 220.942 104.693 220.62 104.693C220.299 104.693 219.978 105.014 219.978 105.336C219.978 105.978 220.62 105.978 220.942 105.978C221.905 105.978 222.869 105.978 223.511 105.978C223.832 105.978 223.832 105.978 224.153 105.978H224.474C225.117 105.978 226.08 105.978 227.365 105.978C228.007 105.978 228.328 105.657 228.328 105.336C228.328 105.014 228.007 104.693 227.686 104.693C227.365 104.693 226.723 104.693 226.08 104.372C225.438 104.051 225.117 103.73 225.117 101.16L224.796 87.029C226.401 88.6348 229.292 92.1676 232.182 95.3793C235.394 98.9122 239.891 103.409 240.212 103.73C242.139 105.657 242.46 105.657 242.781 105.657C243.423 105.657 243.423 105.014 243.423 103.087V84.7808C243.423 82.8538 243.423 82.5326 244.387 82.2114C244.708 82.2114 245.029 82.2114 245.029 82.2114C245.35 82.2114 245.672 81.8903 245.672 81.5691C245.993 81.2479 245.35 81.2479 245.35 81.2479Z" fill="white"/>
<path d="M268.796 81.2479H268.474C268.474 81.2479 268.153 81.2479 267.832 81.2479C267.19 81.2479 266.547 81.2479 265.584 81.2479H254.022C253.701 81.2479 252.416 81.2479 251.453 81.2479C250.81 81.2479 250.81 81.2479 250.489 80.9268H250.168C249.847 80.9268 249.847 81.2479 249.526 81.8903C249.526 81.8903 248.883 84.7808 248.883 85.1019C248.883 85.4231 249.204 85.7443 249.204 85.7443C249.526 85.7443 249.847 85.4231 249.847 85.1019C249.847 84.7808 250.168 84.7808 250.489 84.1384C250.81 83.4961 251.453 83.1749 253.38 83.1749H257.555V96.0217C257.555 98.9122 257.555 101.482 257.555 102.766C257.555 103.73 257.234 104.051 256.912 104.051C256.591 104.051 256.27 104.051 255.949 104.051C255.628 104.051 255.307 104.372 255.307 104.693C255.307 105.014 255.628 105.336 256.27 105.336C256.912 105.336 258.197 105.336 258.839 105.336C259.161 105.336 259.161 105.336 259.482 105.336H259.803C260.445 105.336 262.051 105.336 263.336 105.336C263.978 105.336 264.299 105.014 264.299 104.693C264.299 104.372 263.978 104.051 263.657 104.051C263.336 104.051 262.693 104.051 262.372 104.051C261.73 104.051 261.409 103.73 261.409 102.766C261.409 101.482 261.409 98.9122 261.409 96.0217V83.1749H264.942C268.474 83.1749 268.474 84.1384 268.474 84.4596V84.7808C268.474 85.1019 268.474 85.7443 269.117 85.7443C269.438 85.7443 269.759 85.4231 269.759 85.1019C269.759 85.1019 269.759 84.4596 269.759 84.1384C269.759 83.4961 269.759 82.2114 269.759 81.5691C269.117 81.5691 269.117 81.2479 268.796 81.2479Z" fill="white"/>
<path d="M318.898 104.372C318.577 104.372 318.255 104.372 317.613 104.051C317.292 104.051 316.328 103.73 315.044 100.839C313.759 97.6276 310.869 89.9196 309.263 85.4232C308.62 83.4962 307.978 82.2116 307.978 81.8904C307.657 80.9269 307.336 80.6057 307.015 80.6057C306.693 80.6057 306.372 80.9269 306.051 81.8904L298.985 101.16C298.343 102.766 297.701 103.73 296.737 103.73C296.416 103.73 296.095 103.73 295.774 103.73H295.453H295.131C294.81 103.73 294.489 103.73 293.847 103.73C292.883 103.73 291.92 103.087 290.314 101.482C288.708 99.8758 286.781 97.3064 284.854 94.7371L284.212 93.7736C286.781 91.5254 287.745 88.9561 287.745 86.3867C287.745 84.1386 286.46 82.5327 285.496 81.8904C283.891 80.6057 281.642 80.6057 279.715 80.6057C279.073 80.6057 278.109 80.6057 277.146 80.6057C276.504 80.6057 276.182 80.6057 276.182 80.6057H275.861C275.219 80.6057 273.934 80.6057 272.65 80.6057C272.007 80.6057 271.686 80.9269 271.686 81.248C271.686 81.5692 272.007 81.8904 272.328 81.8904C272.65 81.8904 272.971 81.8904 273.292 81.8904C274.255 82.2116 274.255 82.2116 274.255 83.4962C274.255 84.4597 274.255 85.4232 274.255 90.2407V96.0218C274.255 98.9123 274.255 101.482 274.255 102.766C274.255 103.73 273.934 104.051 273.613 104.372C273.292 104.372 272.971 104.372 272.65 104.372C272.328 104.372 272.007 104.693 272.007 105.014C272.007 105.336 272.328 105.657 272.971 105.657C273.613 105.657 275.219 105.657 275.861 105.657H276.182C276.825 105.657 278.431 105.657 279.715 105.657C280.358 105.657 280.679 105.336 280.679 105.014C280.679 104.693 280.358 104.372 280.037 104.372C279.715 104.372 279.073 104.372 278.752 104.372C278.109 104.372 277.788 104.051 277.788 103.087C277.788 101.803 277.788 99.2334 277.788 96.3429V95.7006H281.642C281.964 96.0218 282.285 96.6641 282.927 97.3064C283.569 98.2699 284.533 99.2334 285.175 100.197L285.496 100.839C287.102 102.766 288.066 104.372 289.35 105.014C290.314 105.336 290.956 105.657 292.883 105.657H295.131C295.453 105.657 295.774 105.657 296.095 105.657C296.416 105.657 296.737 105.657 296.737 105.657C297.701 105.657 298.664 105.657 299.628 105.657C299.949 105.657 300.27 105.657 300.27 105.657C300.27 105.657 300.591 105.657 300.912 105.657C301.555 105.657 302.197 105.657 302.518 105.657C303.161 105.657 303.161 105.336 303.161 105.014C303.161 105.014 303.161 104.372 302.518 104.372H302.197C301.876 104.372 301.234 104.372 301.234 103.73C301.234 103.087 301.234 102.445 301.555 101.803L303.482 96.3429H310.226L313.117 104.051C313.117 104.372 313.117 104.372 313.117 104.372C312.796 104.372 312.796 104.693 312.796 105.014C312.796 105.336 313.438 105.657 313.759 105.657C315.044 105.657 316.971 105.657 318.577 105.657C319.219 105.657 319.54 105.336 319.54 105.014C319.54 104.693 319.219 104.372 318.898 104.372ZM309.263 94.4159H303.803L306.372 86.3867L309.263 94.4159ZM284.212 88.9561C284.212 90.8831 283.569 92.8101 282.606 93.4524C281.963 93.7736 281 94.0948 280.358 94.0948C278.752 94.0948 277.467 93.7736 277.146 93.7736V83.1751C277.467 83.1751 278.109 82.8539 279.073 82.8539C282.285 82.8539 284.212 85.1021 284.212 88.9561Z" fill="white"/>
<path d="M328.533 81.2479H327.891C326.606 81.2479 325.321 81.2479 324.358 81.2479C324.036 81.2479 323.715 81.2479 323.715 81.2479H323.394C322.752 81.2479 321.467 81.2479 320.182 81.2479C319.54 81.2479 319.219 81.5691 319.219 81.8903C319.219 82.2114 319.54 82.5326 319.861 82.5326C320.182 82.5326 320.504 82.5326 320.825 82.5326C321.788 82.8538 321.788 82.8538 321.788 84.1384C321.788 85.1019 321.788 86.0654 321.788 90.883V96.0216C321.788 98.9122 321.788 101.481 321.788 102.766C321.788 103.73 321.467 104.051 321.146 104.051C320.825 104.051 320.504 104.051 320.182 104.051C319.861 104.051 319.54 104.372 319.54 104.693C319.54 105.014 319.861 105.336 320.504 105.336C320.825 105.336 321.146 105.336 321.146 105.336C321.467 105.336 321.788 105.336 322.109 105.336C322.752 105.336 323.394 105.336 323.394 105.336C323.394 105.336 323.715 105.336 324.358 105.336C324.679 105.336 325.321 105.336 325.963 105.336C327.891 105.336 329.175 105.657 330.46 105.657C334.635 105.657 337.847 104.372 340.095 102.124C342.343 99.8757 343.628 96.664 343.628 93.1311C343.628 88.956 342.022 86.3866 340.416 85.1019C336.883 81.2479 331.423 81.2479 328.533 81.2479ZM340.095 94.0946C340.095 96.9851 339.131 99.8757 337.847 101.16C335.92 103.087 333.35 104.051 330.781 104.051C327.248 104.051 325.963 103.409 325.642 103.087C325.642 103.087 325.321 102.445 325.321 100.839C325.321 100.197 325.321 97.3063 325.321 94.0946V90.2406C325.321 87.9925 325.321 84.7808 325.321 83.4961C325.321 83.1749 325.321 83.1749 325.642 83.1749C325.642 83.1749 326.927 82.8538 327.569 82.8538C331.745 82.8538 334.956 83.4961 337.526 86.3866C338.489 87.6713 340.095 89.9195 340.095 94.0946Z" fill="white"/>
<path d="M360.328 100.518C360.007 100.518 359.686 100.839 359.686 101.16C359.365 102.445 359.044 102.766 358.401 103.087C357.759 103.409 356.474 103.409 355.511 103.409C352.62 103.409 352.299 103.087 352.299 101.16C352.299 100.839 352.299 98.591 352.299 97.3063V93.4523C352.942 93.4523 355.832 93.4523 356.474 93.4523C357.759 93.4523 357.759 94.0946 357.759 94.4158C357.759 94.737 357.759 95.0581 357.759 95.3793C357.759 95.7005 358.08 96.0216 358.401 96.0216C359.044 96.0216 359.044 95.3793 359.044 95.0581C359.044 94.737 359.044 93.7735 359.044 93.1311C359.044 92.4888 359.044 92.1676 359.365 91.8465C359.365 91.5253 359.365 91.5253 359.365 91.5253C359.365 91.2041 359.044 90.883 359.044 90.883C358.723 90.883 358.723 91.2041 358.401 91.5253C358.08 91.8465 357.759 91.8465 357.117 91.8465C356.474 91.8465 354.226 91.8465 352.299 91.8465V83.1749C352.942 83.1749 355.832 83.1749 356.474 83.1749C358.08 83.4961 358.401 83.8173 358.401 84.1384C358.401 84.4596 358.401 84.7808 358.401 85.1019C358.401 85.7443 358.723 85.7443 359.044 85.7443C359.365 85.7443 359.365 85.7443 359.686 85.1019C359.686 84.7808 359.686 84.1384 359.686 83.8173C359.686 83.4961 359.686 83.1749 359.686 83.1749C359.686 82.5326 359.686 82.2114 360.007 82.2114C360.007 81.8903 360.007 81.8903 360.007 81.8903C360.007 81.2479 359.686 81.2479 359.686 81.2479C359.365 81.2479 359.365 81.2479 359.365 81.2479C359.044 81.2479 358.723 81.2479 358.08 81.2479C357.438 81.2479 351.336 81.2479 351.015 81.2479H349.73C349.088 81.2479 348.124 81.2479 347.482 81.2479C346.839 81.2479 346.518 81.5691 346.518 81.8903C346.518 82.2114 346.839 82.5326 347.161 82.5326C347.482 82.5326 347.803 82.5326 348.124 82.5326C349.088 82.8538 349.088 82.8538 349.088 84.1384C349.088 85.1019 349.088 86.0654 349.088 90.883V96.0216C349.088 98.9122 349.088 101.481 349.088 102.766C349.088 103.73 348.766 104.051 348.445 104.051C348.124 104.051 347.803 104.051 347.482 104.051C347.161 104.051 346.839 104.372 346.839 104.693C346.839 105.014 347.161 105.336 347.803 105.336C348.124 105.336 348.445 105.336 348.445 105.336C348.766 105.336 349.088 105.336 349.409 105.336C350.051 105.336 350.693 105.336 350.693 105.336C351.336 105.336 351.978 105.336 353.263 105.336H353.905C354.869 105.336 356.474 105.336 358.401 105.336C359.686 105.336 360.007 105.336 360.328 104.372C360.328 103.73 360.65 101.482 360.65 101.16C360.971 101.16 360.971 100.518 360.328 100.518Z" fill="white"/>
</g>
<defs>
<clipPath id="clip0">
<rect width="411" height="176" fill="white"/>
</clipPath>
</defs>
</svg>
